<svg xmlns="http://www.w3.org/2000/svg" viewBox="0 0 1600 1200">
<defs><filter id="paper"><feTurbulence baseFrequency=".9" numOctaves="2" seed="7" type="fractalNoise" result="n"/><feColorMatrix in="n" values="1 0 0 0 .6 0 1 0 0 .58 0 0 1 0 .52 0 0 0 .12 0"/><feBlend in="SourceGraphic" mode="multiply"/></filter><filter id="sh"><feDropShadow dx="0" dy="20" stdDeviation="24" flood-opacity=".18"/></filter></defs>
<rect width="1600" height="1200" fill="#eee9df"/><rect width="1600" height="1200" fill="#f4f0e7" filter="url(#paper)" opacity=".45"/>
<text x="95" y="105" font-family="Arial" font-size="26" font-weight="700" letter-spacing="7" fill="#3c3c3b">LOGO DESIGN / IDENTITY STUDY</text>
<text x="95" y="260" font-family="Georgia" font-size="118" fill="#15181b">Forma</text><text x="95" y="365" font-family="Georgia" font-size="118" fill="#15181b">North.</text>
<text x="100" y="430" font-family="Arial" font-size="23" letter-spacing="3" fill="#5f625f">MONOGRAMS · SYMBOLS · TYPOGRAPHIC SYSTEM</text>
<g filter="url(#sh)"><rect x="590" y="70" width="430" height="530" rx="6" fill="#16191d"/><rect x="1070" y="80" width="390" height="460" rx="6" fill="#faf7ef"/>
<rect x="505" y="640" width="540" height="405" rx="6" fill="#f9f4ea"/><rect x="1085" y="625" width="370" height="300" rx="6" fill="#20252a"/></g>
<g transform="translate(775 300)"><path d="M-105 110 L0-120 105 110 50 110 0 0-50 110Z" fill="#d6ba82"/><path d="M-30 26 Q0-5 32 26 Q8 18-30 26Z" fill="#768166"/></g>
<text x="680" y="500" font-family="Georgia" font-size="42" letter-spacing="10" fill="#d6ba82">FORMA</text>
<g transform="translate(1260 255)"><path d="M-78 82 L0-86 78 82 40 82 0 2-40 82Z" fill="#252b2e"/><path d="M-22 22 Q0-1 24 22 Q3 16-22 22Z" fill="#768166"/></g>
<text x="1166" y="410" font-family="Arial" font-size="21" letter-spacing="10" fill="#252b2e">NORTH</text>
<g transform="translate(720 770)"><circle r="132" fill="none" stroke="#b9b1a5" stroke-width="2"/><circle r="90" fill="none" stroke="#b9b1a5" stroke-width="2"/><path d="M-102 103 L0-120 102 103 48 103 0 2-48 103Z" fill="none" stroke="#20252a" stroke-width="12"/><path d="M-31 25 Q0-8 35 25 Q8 16-31 25Z" fill="none" stroke="#768166" stroke-width="10"/></g>
<text x="560" y="1010" font-family="Arial" font-size="18" letter-spacing="6" fill="#4b4e4c">BALANCE / FLOW / PURPOSE</text>
<g transform="translate(1270 760)"><path d="M-62 70 L0-70 62 70 30 70 0 5-30 70Z" fill="#d6ba82"/><path d="M-18 21 Q0-2 20 21 Q4 15-18 21Z" fill="#768166"/></g>
<text x="1145" y="865" font-family="Arial" font-size="18" letter-spacing="5" fill="#d6ba82">FORMA NORTH</text>
</svg>