<svg xmlns="http://www.w3.org/2000/svg" viewBox="0 0 1600 1200"><rect width="1600" height="1200" fill="#f3eee7"/>
<text x="90" y="100" font-family="Arial" font-size="24" font-weight="700" letter-spacing="7" fill="#8a684f">META ADS / HOME & LIVING</text><text x="90" y="225" font-family="Georgia" font-size="106" fill="#2b2520">HomeKind.</text><text x="95" y="285" font-family="Arial" font-size="21" letter-spacing="3" fill="#766d67">CAROUSEL SYSTEM · PRODUCT STORY · BENEFIT-LED MESSAGING</text>
<g transform="translate(90 380)"><rect width="440" height="620" rx="24" fill="#d9c2a8"/><rect x="62" y="80" width="316" height="300" rx="12" fill="#eee6dc"/><rect x="100" y="210" width="240" height="130" rx="22" fill="#9e765e"/><rect x="135" y="135" width="170" height="100" rx="12" fill="#f8f4ef"/><text x="42" y="465" font-family="Georgia" font-size="52" fill="#2b2520">Softness,</text><text x="42" y="520" font-family="Georgia" font-size="52" fill="#2b2520">every day.</text><text x="42" y="575" font-family="Arial" font-size="16" letter-spacing="4" fill="#6f5949">LINEN / COTTON / CALM</text></g>
<g transform="translate(575 380)"><rect width="440" height="620" rx="24" fill="#e8dfd0"/><circle cx="220" cy="235" r="145" fill="#f6f2eb"/><rect x="170" y="145" width="100" height="210" rx="14" fill="#aa8f68"/><text x="42" y="465" font-family="Georgia" font-size="52" fill="#2b2520">Made to</text><text x="42" y="520" font-family="Georgia" font-size="52" fill="#2b2520">last longer.</text><text x="42" y="575" font-family="Arial" font-size="16" letter-spacing="4" fill="#71695e">CRAFT / DETAIL / CARE</text></g>
<g transform="translate(1060 380)"><rect width="440" height="620" rx="24" fill="#7d6a5d"/><text x="42" y="90" font-family="Arial" font-size="20" font-weight="800" letter-spacing="4" fill="#f4eee7">OFFER / 03</text><text x="42" y="250" font-family="Georgia" font-size="76" fill="#fff">Buy two.</text><text x="42" y="328" font-family="Georgia" font-size="76" fill="#fff">Save 20%.</text><rect x="42" y="395" width="250" height="54" rx="27" fill="#f4eee7"/><text x="84" y="429" font-family="Arial" font-size="17" font-weight="800" fill="#4e4038">EXPLORE SETS</text></g>
</svg>