<svg xmlns="http://www.w3.org/2000/svg" viewBox="0 0 1600 1200"><rect width="1600" height="1200" fill="#e6eee5"/>
<text x="90" y="100" font-family="Arial" font-size="24" font-weight="700" letter-spacing="7" fill="#35634a">OUTDOOR / URBAN TRANSIT</text><text x="90" y="225" font-family="Arial" font-size="104" font-weight="900" fill="#183428">METRO GREEN</text><text x="95" y="285" font-family="Arial" font-size="21" letter-spacing="3" fill="#607467">POLE BANNERS · TRANSIT POSTERS · KIOSK MEDIA · WAYFINDING</text>
<rect x="90" y="370" width="1420" height="670" rx="26" fill="#d9e3dd"/>
<rect x="210" y="450" width="26" height="510" fill="#4a4c4b"/><rect x="1250" y="450" width="26" height="510" fill="#4a4c4b"/>
<g transform="translate(245 470)"><rect width="260" height="410" rx="8" fill="#183428"/><circle cx="130" cy="145" r="80" fill="#9dd08e"/><path d="M100 155h60M130 125v60" stroke="#183428" stroke-width="14" stroke-linecap="round"/><text x="28" y="300" font-family="Arial" font-size="36" font-weight="900" fill="#fff">RIDE</text><text x="28" y="345" font-family="Arial" font-size="36" font-weight="900" fill="#fff">LIGHTER.</text></g>
<g transform="translate(995 470)"><rect width="260" height="410" rx="8" fill="#f0c94f"/><text x="28" y="82" font-family="Arial" font-size="20" font-weight="800" fill="#183428">CITY / 2030</text><circle cx="130" cy="205" r="88" fill="#183428"/><path d="M90 205h80M130 165v80" stroke="#f0c94f" stroke-width="14" stroke-linecap="round"/><text x="28" y="345" font-family="Arial" font-size="33" font-weight="900" fill="#183428">LESS CAR.</text><text x="28" y="385" font-family="Arial" font-size="33" font-weight="900" fill="#183428">MORE CITY.</text></g>
<rect x="545" y="500" width="400" height="390" rx="18" fill="#fff"/><text x="590" y="585" font-family="Arial" font-size="26" font-weight="800" fill="#183428">METRO GREEN</text><text x="590" y="680" font-family="Georgia" font-size="62" fill="#183428">Every stop</text><text x="590" y="744" font-family="Georgia" font-size="62" fill="#183428">moves us.</text><line x1="590" y1="800" x2="850" y2="800" stroke="#9dd08e" stroke-width="12"/>
</svg>