<svg xmlns="http://www.w3.org/2000/svg" viewBox="0 0 720 620"><rect width="720" height="620" rx="28" fill="#101014"/><text x="48" y="78" font-family="Arial" font-size="28" font-weight="800" fill="#fff">Layers</text><text x="48" y="112" font-family="Arial" font-size="13" fill="#aeb8ff">LIVE EDITABLE STRUCTURE</text><rect x="48" y="152" width="624" height="76" rx="18" fill="#24242b"/><circle cx="88" cy="190" r="16" fill="#2942ff"/><text x="126" y="198" font-family="Arial" font-size="20" font-weight="700" fill="#fff">Headline Text</text><rect x="548" y="180" width="74" height="20" rx="10" fill="#5b6eff"/><rect x="48" y="250" width="624" height="76" rx="18" fill="#24242b"/><circle cx="88" cy="288" r="16" fill="#ff4a35"/><text x="126" y="296" font-family="Arial" font-size="20" font-weight="700" fill="#fff">Image Layer</text><rect x="548" y="278" width="74" height="20" rx="10" fill="#5b6eff"/><rect x="48" y="348" width="624" height="76" rx="18" fill="#24242b"/><circle cx="88" cy="386" r="16" fill="#f2f0e9"/><text x="126" y="394" font-family="Arial" font-size="20" font-weight="700" fill="#fff">Shape Accent</text><rect x="548" y="376" width="74" height="20" rx="10" fill="#5b6eff"/><rect x="48" y="482" width="278" height="62" rx="18" fill="#2942ff"/><text x="85" y="522" font-family="Arial" font-size="17" font-weight="800" fill="#fff">DUPLICATE</text><rect x="348" y="482" width="278" height="62" rx="18" fill="#fff"/><text x="404" y="522" font-family="Arial" font-size="17" font-weight="800" fill="#101014">REORDER</text></svg>