<svg xmlns="http://www.w3.org/2000/svg" width="1200" height="760" viewBox="0 0 1200 760" role="img" aria-label="Editorial and public communication visual preview"><rect width="1200" height="760" rx="42" fill="#ff4a35"/><rect x="55" y="60" width="1090" height="560" rx="42" fill="#d83227" opacity=".65"/><g transform="rotate(-7 250 360)"><rect x="105" y="145" width="280" height="400" rx="24" fill="#fff"/><rect x="135" y="185" width="220" height="72" fill="#2942ff"/><text x="158" y="234" fill="#fff" font-family="Arial" font-weight="900" font-size="34">11 YEARS</text><rect x="135" y="300" width="220" height="120" fill="#f2f0e9"/><rect x="135" y="455" width="220" height="55" fill="#101014"/></g><g><rect x="460" y="130" width="300" height="430" rx="24" fill="#fff"/><rect x="500" y="175" width="220" height="70" fill="#0f8a42"/><circle cx="610" cy="210" r="38" fill="none" stroke="#fff" stroke-width="7"/><rect x="500" y="290" width="220" height="120" fill="#2942ff"/><rect x="500" y="445" width="165" height="22" rx="11" fill="#101014" opacity=".25"/></g><g transform="rotate(6 930 360)"><rect x="825" y="155" width="285" height="395" rx="24" fill="#fff"/><rect x="860" y="205" width="215" height="58" fill="#101014"/><text x="878" y="243" fill="#fff" font-family="Arial" font-weight="900" font-size="28">EDITORIAL</text><rect x="860" y="305" width="215" height="105" fill="#2942ff"/><rect x="860" y="448" width="165" height="22" rx="11" fill="#101014" opacity=".22"/></g><rect x="120" y="584" width="650" height="64" rx="18" fill="#fff"/><text x="148" y="626" fill="#101014" font-family="Arial" font-weight="900" font-size="34">Editorial work made readable</text><text x="148" y="672" fill="#fff" font-family="Arial" font-size="22">Pamphlet pages · newspaper ads · dense communication systems</text></svg>