<svg xmlns="http://www.w3.org/2000/svg" width="1200" height="630" viewBox="0 0 1200 630"><rect width="1200" height="630" fill="#f2f0e9"/><g fill="none" stroke="#2942ff" stroke-opacity=".14"><path d="M0 80h1200M0 160h1200M0 240h1200M0 320h1200M0 400h1200M0 480h1200M0 560h1200"/><path d="M100 0v630M200 0v630M300 0v630M400 0v630M500 0v630M600 0v630M700 0v630M800 0v630M900 0v630M1000 0v630M1100 0v630"/></g><text x="72" y="96" font-family="Arial, Helvetica, sans-serif" font-size="24" font-weight="700" fill="#2942ff" letter-spacing="4">ART DIRECTOR / UI·UX / AI DESIGN</text><text x="70" y="330" font-family="Arial, Helvetica, sans-serif" font-size="128" font-weight="900" fill="#101014" letter-spacing="-8">VISWANATHAN</text><text x="70" y="455" font-family="Arial, Helvetica, sans-serif" font-size="128" font-weight="900" fill="#2942ff" letter-spacing="-8">G.</text><text x="74" y="545" font-family="Arial, Helvetica, sans-serif" font-size="31" fill="#101014">Creative direction, digital products and AI-powered design systems.</text></svg>